<?xml version="1.0" encoding="UTF-8" standalone="no"?><!DOCTYPE svg PUBLIC "-//W3C//DTD SVG 1.1//EN" "http://www.w3.org/Graphics/SVG/1.1/DTD/svg11.dtd"><!-- Generated by graphviz version 2.40.1 (20161225.0304)
 --><!-- Title: G Pages: 1 --><svg xmlns="http://www.w3.org/2000/svg" xmlns:xlink="http://www.w3.org/1999/xlink" width="996pt" height="537pt" viewBox="0.00 0.00 996.08 536.86">
<g id="graph0" class="graph" transform="scale(1 1) rotate(0) translate(4 532.864)">
<title>G</title>
<polygon fill="none" stroke="transparent" points="-4,4 -4,-532.864 992.0836,-532.864 992.0836,4 -4,4"/>
<!-- BicepTask -->
<g id="node1" class="node">
<title>BicepTask</title>
<ellipse fill="none" stroke="#ffffff" cx="828.3156" cy="-438.864" rx="52.1655" ry="18"/>
<text text-anchor="middle" x="828.3156" y="-434.664" font-family="Times,serif" font-size="14.00" fill="#ffffff">BicepTask</text>
</g>
<!-- DataBase -->
<g id="node2" class="node">
<title>DataBase</title>
<ellipse fill="none" stroke="#ffffff" cx="387.3156" cy="-90" rx="48.0684" ry="18"/>
<text text-anchor="middle" x="387.3156" y="-85.8" font-family="Times,serif" font-size="14.00" fill="#ffffff">DataBase</text>
</g>
<!-- BicepTask&#45;&gt;DataBase -->
<g id="edge1" class="edge">
<title>BicepTask-&gt;DataBase</title>
<path fill="none" stroke="#ffffff" d="M813.9163,-421.2334C772.7936,-371.0532 656.3002,-230.1501 633.3156,-216 578.6056,-182.3187 549.5414,-211.0848 493.3156,-180 472.9555,-168.7438 472.886,-159.2484 455.3156,-144 443.0121,-133.3225 428.9791,-122.0374 416.869,-112.5602"/>
<polygon fill="#ffffff" stroke="#ffffff" points="418.8807,-109.6909 408.8373,-106.3176 414.585,-115.2179 418.8807,-109.6909"/>
</g>
<!-- SmurfRx -->
<g id="node4" class="node">
<title>SmurfRx</title>
<ellipse fill="none" stroke="#ffffff" cx="717.3156" cy="-162" rx="46.3875" ry="18"/>
<text text-anchor="middle" x="717.3156" y="-157.8" font-family="Times,serif" font-size="14.00" fill="#ffffff">SmurfRx</text>
</g>
<!-- BicepTask&#45;&gt;SmurfRx -->
<g id="edge4" class="edge">
<title>BicepTask-&gt;SmurfRx</title>
<path fill="none" stroke="#ffffff" d="M831.9853,-420.6649C839.092,-380.2724 850.6328,-281.5322 809.3156,-216 798.4812,-198.8159 780.0414,-186.4439 762.5026,-177.9151"/>
<polygon fill="#ffffff" stroke="#ffffff" points="763.4587,-174.5057 752.9056,-173.5661 760.5693,-180.8816 763.4587,-174.5057"/>
</g>
<!-- SmurfdMaster -->
<g id="node5" class="node">
<title>SmurfdMaster</title>
<polygon fill="none" stroke="#ffffff" points="450.6797,-384.7961 353.9515,-384.7961 353.9515,-288.0679 450.6797,-288.0679 450.6797,-384.7961"/>
<polyline fill="none" stroke="#ffffff" points="365.9515,-384.7961 353.9515,-372.7961 "/>
<polyline fill="none" stroke="#ffffff" points="353.9515,-300.0679 365.9515,-288.0679 "/>
<polyline fill="none" stroke="#ffffff" points="438.6797,-288.0679 450.6797,-300.0679 "/>
<polyline fill="none" stroke="#ffffff" points="450.6797,-372.7961 438.6797,-384.7961 "/>
<text text-anchor="middle" x="402.3156" y="-332.232" font-family="Times,serif" font-size="14.00" fill="#ffffff">SmurfdMaster</text>
</g>
<!-- BicepTask&#45;&gt;SmurfdMaster -->
<g id="edge7" class="edge">
<title>BicepTask-&gt;SmurfdMaster</title>
<path fill="none" stroke="#ffffff" d="M777.1749,-434.8854C693.5548,-427.8285 530.5688,-411.6253 460.2062,-384.4148"/>
<polygon fill="#ffffff" stroke="#ffffff" points="461.485,-381.1557 450.9103,-380.502 458.7693,-387.6074 461.485,-381.1557"/>
</g>
<!-- CommandTask -->
<g id="node13" class="node">
<title>CommandTask</title>
<ellipse fill="none" stroke="#ffffff" cx="791.3156" cy="-90" rx="70.0867" ry="18"/>
<text text-anchor="middle" x="791.3156" y="-85.8" font-family="Times,serif" font-size="14.00" fill="#ffffff">CommandTask</text>
</g>
<!-- BicepTask&#45;&gt;CommandTask -->
<g id="edge15" class="edge">
<title>BicepTask-&gt;CommandTask</title>
<path fill="none" stroke="#ffffff" d="M848.2483,-421.9843C901.54,-374.8318 1038.6245,-238.9584 968.3156,-144 954.9854,-125.9965 903.6551,-111.5834 859.6806,-102.1914"/>
<polygon fill="#ffffff" stroke="#ffffff" points="860.3521,-98.7563 849.849,-100.1473 858.9271,-105.6097 860.3521,-98.7563"/>
</g>
<!-- SmurfdControl -->
<g id="node17" class="node">
<title>SmurfdControl</title>
<ellipse fill="none" stroke="#ffffff" cx="889.3156" cy="-162" rx="69.5225" ry="18"/>
<text text-anchor="middle" x="889.3156" y="-157.8" font-family="Times,serif" font-size="14.00" fill="#ffffff">SmurfdControl</text>
</g>
<!-- BicepTask&#45;&gt;SmurfdControl -->
<g id="edge22" class="edge">
<title>BicepTask-&gt;SmurfdControl</title>
<path fill="none" stroke="#ffffff" d="M833.1891,-420.9151C835.9802,-410.4321 839.4802,-396.9321 842.3156,-384.864 858.6988,-315.1317 875.4297,-232.4951 883.8129,-190.1326"/>
<polygon fill="#ffffff" stroke="#ffffff" points="887.2583,-190.7507 885.759,-180.2625 880.3905,-189.3965 887.2583,-190.7507"/>
</g>
<!-- Data -->
<g id="node16" class="node">
<title>Data</title>
<ellipse fill="none" stroke="#ffffff" cx="540.3156" cy="-18" rx="29.0318" ry="18"/>
<text text-anchor="middle" x="540.3156" y="-13.8" font-family="Times,serif" font-size="14.00" fill="#ffffff">Data</text>
</g>
<!-- DataBase&#45;&gt;Data -->
<g id="edge20" class="edge">
<title>DataBase-&gt;Data</title>
<path fill="none" stroke="#ffffff" d="M417.5434,-75.7751C443.4493,-63.5841 480.6951,-46.0567 507.3593,-33.5088"/>
<polygon fill="#ffffff" stroke="#ffffff" points="509.1057,-36.5552 516.6636,-29.1303 506.1251,-30.2215 509.1057,-36.5552"/>
</g>
<!-- GenericTask -->
<g id="node3" class="node">
<title>GenericTask</title>
<ellipse fill="none" stroke="#ffffff" cx="740.3156" cy="-234" rx="60.2306" ry="18"/>
<text text-anchor="middle" x="740.3156" y="-229.8" font-family="Times,serif" font-size="14.00" fill="#ffffff">GenericTask</text>
</g>
<!-- GenericTask&#45;&gt;DataBase -->
<g id="edge2" class="edge">
<title>GenericTask-&gt;DataBase</title>
<path fill="none" stroke="#ffffff" d="M688.4264,-224.7074C670.9483,-221.7277 651.3148,-218.544 633.3156,-216 563.7719,-206.1709 366.0652,-232.4157 319.3156,-180 299.4375,-157.7127 327.3711,-130.042 353.2083,-111.3101"/>
<polygon fill="#ffffff" stroke="#ffffff" points="355.2562,-114.149 361.4601,-105.5605 351.2544,-108.4057 355.2562,-114.149"/>
</g>
<!-- GenericTask&#45;&gt;SmurfRx -->
<g id="edge5" class="edge">
<title>GenericTask-&gt;SmurfRx</title>
<path fill="none" stroke="#ffffff" d="M734.5117,-215.8314C731.9591,-207.8406 728.9056,-198.2819 726.0848,-189.4514"/>
<polygon fill="#ffffff" stroke="#ffffff" points="729.415,-188.3741 723.0379,-179.9134 722.7469,-190.5043 729.415,-188.3741"/>
</g>
<!-- GenericTask&#45;&gt;CommandTask -->
<g id="edge16" class="edge">
<title>GenericTask-&gt;CommandTask</title>
<path fill="none" stroke="#ffffff" d="M752.8344,-216.265C759.5012,-206.0754 767.331,-192.7941 772.3156,-180 780.1178,-159.9736 784.9677,-136.1291 787.8131,-118.0161"/>
<polygon fill="#ffffff" stroke="#ffffff" points="791.2814,-118.4869 789.264,-108.0859 784.3549,-117.4748 791.2814,-118.4869"/>
</g>
<!-- GenericTask&#45;&gt;SmurfdControl -->
<g id="edge23" class="edge">
<title>GenericTask-&gt;SmurfdControl</title>
<path fill="none" stroke="#ffffff" d="M772.2798,-218.5542C794.1717,-207.9756 823.4329,-193.8359 847.22,-182.3415"/>
<polygon fill="#ffffff" stroke="#ffffff" points="848.8922,-185.4207 856.3733,-177.9184 845.8466,-179.118 848.8922,-185.4207"/>
</g>
<!-- SmurfRx&#45;&gt;DataBase -->
<g id="edge3" class="edge">
<title>SmurfRx-&gt;DataBase</title>
<path fill="none" stroke="#ffffff" stroke-dasharray="5,2" d="M682.2482,-150.0391C675.3509,-147.8823 668.138,-145.7624 661.3156,-144 585.9666,-124.536 497.3896,-108.2511 441.7933,-98.8105"/>
<polygon fill="#ffffff" stroke="#ffffff" points="442.2492,-95.338 431.8067,-97.1281 441.0863,-102.2408 442.2492,-95.338"/>
</g>
<!-- SmurfRx&#45;&gt;CommandTask -->
<g id="edge17" class="edge">
<title>SmurfRx-&gt;CommandTask</title>
<path fill="none" stroke="#ffffff" stroke-dasharray="5,2" d="M734.8525,-144.937C744.2072,-135.8352 755.8823,-124.4756 766.1844,-114.4519"/>
<polygon fill="#ffffff" stroke="#ffffff" points="768.6639,-116.9228 773.3904,-107.4407 763.7824,-111.9057 768.6639,-116.9228"/>
</g>
<!-- SmurfRx&#45;&gt;Data -->
<g id="edge21" class="edge">
<title>SmurfRx-&gt;Data</title>
<path fill="none" stroke="#ffffff" stroke-dasharray="5,2" d="M697.0114,-145.4814C664.6462,-119.1503 601.4053,-67.7001 565.9612,-38.8643"/>
<polygon fill="#ffffff" stroke="#ffffff" points="567.9689,-35.9856 558.0029,-32.3897 563.5512,-41.4156 567.9689,-35.9856"/>
</g>
<!-- SmurfdMaster&#45;&gt;GenericTask -->
<g id="edge24" class="edge">
<title>SmurfdMaster-&gt;GenericTask</title>
<path fill="none" stroke="#ffffff" stroke-dasharray="5,2" d="M450.9825,-292.517C453.721,-290.8678 456.5053,-289.3474 459.3156,-288 469.1823,-283.2692 598.6045,-259.4658 678.3192,-245.0879"/>
<polygon fill="#ffffff" stroke="#ffffff" points="679.0402,-248.5144 688.2613,-243.297 677.7992,-241.6253 679.0402,-248.5144"/>
</g>
<!-- SmurfdMaster&#45;&gt;SmurfRx -->
<g id="edge6" class="edge">
<title>SmurfdMaster-&gt;SmurfRx</title>
<path fill="none" stroke="#ffffff" stroke-dasharray="5,2" d="M381.4597,-287.8451C374.5656,-263.5513 372.4058,-235.2953 389.3156,-216 429.5011,-170.1453 601.8308,-193.3827 661.3156,-180 665.184,-179.1297 669.1673,-178.1093 673.1415,-177.0044"/>
<polygon fill="#ffffff" stroke="#ffffff" points="674.3275,-180.3038 682.9312,-174.121 672.3498,-173.589 674.3275,-180.3038"/>
</g>
<!-- SmurfdNetCmdForwarder -->
<g id="node15" class="node">
<title>SmurfdNetCmdForwarder</title>
<ellipse fill="none" stroke="#ffffff" cx="511.3156" cy="-234" rx="112.8809" ry="18"/>
<text text-anchor="middle" x="511.3156" y="-229.8" font-family="Times,serif" font-size="14.00" fill="#ffffff">SmurfdNetCmdForwarder</text>
</g>
<!-- SmurfdMaster&#45;&gt;SmurfdNetCmdForwarder -->
<g id="edge19" class="edge">
<title>SmurfdMaster-&gt;SmurfdNetCmdForwarder</title>
<path fill="none" stroke="#ffffff" stroke-dasharray="5,2" d="M450.7593,-290.9073C462.4489,-279.9221 474.5149,-268.5832 484.77,-258.946"/>
<polygon fill="#ffffff" stroke="#ffffff" points="487.3326,-261.3408 492.223,-251.9421 482.5389,-256.2397 487.3326,-261.3408"/>
</g>
<!-- GenericMasterTask -->
<g id="node6" class="node">
<title>GenericMasterTask</title>
<ellipse fill="none" stroke="#ffffff" cx="402.3156" cy="-438.864" rx="87.3537" ry="18"/>
<text text-anchor="middle" x="402.3156" y="-434.664" font-family="Times,serif" font-size="14.00" fill="#ffffff">GenericMasterTask</text>
</g>
<!-- GenericMasterTask&#45;&gt;SmurfdMaster -->
<g id="edge8" class="edge">
<title>GenericMasterTask-&gt;SmurfdMaster</title>
<path fill="none" stroke="#ffffff" d="M402.3156,-420.5512C402.3156,-413.198 402.3156,-404.2757 402.3156,-395.0254"/>
<polygon fill="#ffffff" stroke="#ffffff" points="405.8157,-394.9178 402.3156,-384.9178 398.8157,-394.9179 405.8157,-394.9178"/>
</g>
<!-- MceNum -->
<g id="node7" class="node">
<title>MceNum</title>
<ellipse fill="none" stroke="#ffffff" cx="555.3156" cy="-438.864" rx="47.5119" ry="18"/>
<text text-anchor="middle" x="555.3156" y="-434.664" font-family="Times,serif" font-size="14.00" fill="#ffffff">MceNum</text>
</g>
<!-- MceNum&#45;&gt;SmurfdMaster -->
<g id="edge9" class="edge">
<title>MceNum-&gt;SmurfdMaster</title>
<path fill="none" stroke="#ffffff" stroke-dasharray="5,2" d="M526.3054,-424.4127C506.7953,-414.2488 480.8132,-399.8364 459.3156,-384.864 459.229,-384.8037 459.1424,-384.7433 459.0558,-384.6828"/>
<polygon fill="#ffffff" stroke="#ffffff" points="461.1075,-381.8472 450.9621,-378.7941 456.9892,-387.5076 461.1075,-381.8472"/>
</g>
<!-- Board -->
<g id="node8" class="node">
<title>Board</title>
<ellipse fill="none" stroke="#ffffff" cx="104.3156" cy="-438.864" rx="34.7709" ry="18"/>
<text text-anchor="middle" x="104.3156" y="-434.664" font-family="Times,serif" font-size="14.00" fill="#ffffff">Board</text>
</g>
<!-- SmurfRunfileParse -->
<g id="node9" class="node">
<title>SmurfRunfileParse</title>
<ellipse fill="none" stroke="#ffffff" cx="251.3156" cy="-336.432" rx="85.1063" ry="18"/>
<text text-anchor="middle" x="251.3156" y="-332.232" font-family="Times,serif" font-size="14.00" fill="#ffffff">SmurfRunfileParse</text>
</g>
<!-- Board&#45;&gt;SmurfRunfileParse -->
<g id="edge10" class="edge">
<title>Board-&gt;SmurfRunfileParse</title>
<path fill="none" stroke="#ffffff" d="M125.0653,-424.4052C149.2357,-407.5629 189.4919,-379.5118 218.0436,-359.6165"/>
<polygon fill="#ffffff" stroke="#ffffff" points="220.2943,-362.3141 226.4979,-353.7254 216.2923,-356.5709 220.2943,-362.3141"/>
</g>
<!-- SmurfDataParse -->
<g id="node11" class="node">
<title>SmurfDataParse</title>
<ellipse fill="none" stroke="#ffffff" cx="74.3156" cy="-336.432" rx="74.1316" ry="18"/>
<text text-anchor="middle" x="74.3156" y="-332.232" font-family="Times,serif" font-size="14.00" fill="#ffffff">SmurfDataParse</text>
</g>
<!-- Board&#45;&gt;SmurfDataParse -->
<g id="edge12" class="edge">
<title>Board-&gt;SmurfDataParse</title>
<path fill="none" stroke="#ffffff" d="M99.09,-421.0217C94.4937,-405.3283 87.7288,-382.2303 82.429,-364.1343"/>
<polygon fill="#ffffff" stroke="#ffffff" points="85.7516,-363.0266 79.5819,-354.4135 79.0338,-364.9942 85.7516,-363.0266"/>
</g>
<!-- SmurfRunfileParse&#45;&gt;DataBase -->
<g id="edge26" class="edge">
<title>SmurfRunfileParse-&gt;DataBase</title>
<path fill="none" stroke="#ff0000" stroke-dasharray="5,2" d="M252.8069,-318.2328C256.5858,-281.8721 269.2846,-199.0192 309.3156,-144 319.587,-129.8828 334.7253,-118.1983 348.9391,-109.3522"/>
<polygon fill="#ff0000" stroke="#ff0000" points="350.7956,-112.3205 357.618,-104.2146 347.2297,-106.2968 350.7956,-112.3205"/>
</g>
<!-- BicepShare -->
<g id="node10" class="node">
<title>BicepShare</title>
<ellipse fill="none" stroke="#ffffff" cx="241.3156" cy="-438.864" rx="55.5946" ry="18"/>
<text text-anchor="middle" x="241.3156" y="-434.664" font-family="Times,serif" font-size="14.00" fill="#ffffff">BicepShare</text>
</g>
<!-- BicepShare&#45;&gt;SmurfdMaster -->
<g id="edge30" class="edge">
<title>BicepShare-&gt;SmurfdMaster</title>
<path fill="none" stroke="#ff0000" stroke-dasharray="5,2" d="M274.2446,-424.1199C295.2535,-414.1503 322.6874,-400.0677 345.3156,-384.864 345.4031,-384.8052 345.4907,-384.7462 345.5784,-384.6871"/>
<polygon fill="#ff0000" stroke="#ff0000" points="347.6052,-387.5406 353.7463,-378.9071 343.5617,-381.8266 347.6052,-387.5406"/>
</g>
<!-- BicepShare&#45;&gt;SmurfRunfileParse -->
<g id="edge11" class="edge">
<title>BicepShare-&gt;SmurfRunfileParse</title>
<path fill="none" stroke="#ffffff" stroke-dasharray="5,2" d="M243.1034,-420.5512C244.6178,-405.0383 246.8141,-382.5413 248.5544,-364.7153"/>
<polygon fill="#ffffff" stroke="#ffffff" points="252.055,-364.879 249.5432,-354.5862 245.0881,-364.1988 252.055,-364.879"/>
</g>
<!-- BicepShare&#45;&gt;SmurfDataParse -->
<g id="edge13" class="edge">
<title>BicepShare-&gt;SmurfDataParse</title>
<path fill="none" stroke="#ffffff" stroke-dasharray="5,2" d="M215.2218,-422.859C187.0844,-405.6005 142.0907,-378.0029 110.5348,-358.6476"/>
<polygon fill="#ffffff" stroke="#ffffff" points="111.9661,-355.4197 101.6119,-353.1746 108.3062,-361.3866 111.9661,-355.4197"/>
</g>
<!-- SmurfDataParse&#45;&gt;DataBase -->
<g id="edge27" class="edge">
<title>SmurfDataParse-&gt;DataBase</title>
<path fill="none" stroke="#ff0000" stroke-dasharray="5,2" d="M90.9322,-318.6505C125.1369,-282.6889 206.8891,-199.989 286.3156,-144 305.4493,-130.5123 328.3462,-118.0091 347.4979,-108.4377"/>
<polygon fill="#ff0000" stroke="#ff0000" points="349.1336,-111.5337 356.5658,-103.9831 346.0471,-105.2509 349.1336,-111.5337"/>
</g>
<!-- MceDataFrameManager -->
<g id="node12" class="node">
<title>MceDataFrameManager</title>
<ellipse fill="none" stroke="#ffffff" cx="241.3156" cy="-510.864" rx="105.3142" ry="18"/>
<text text-anchor="middle" x="241.3156" y="-506.664" font-family="Times,serif" font-size="14.00" fill="#ffffff">MceDataFrameManager</text>
</g>
<!-- MceDataFrameManager&#45;&gt;BicepShare -->
<g id="edge14" class="edge">
<title>MceDataFrameManager-&gt;BicepShare</title>
<path fill="none" stroke="#ffffff" d="M241.3156,-492.6954C241.3156,-484.995 241.3156,-475.8383 241.3156,-467.2806"/>
<polygon fill="#ffffff" stroke="#ffffff" points="244.8157,-467.2772 241.3156,-457.2773 237.8157,-467.2773 244.8157,-467.2772"/>
</g>
<!-- NetCmdForwarder -->
<g id="node14" class="node">
<title>NetCmdForwarder</title>
<ellipse fill="none" stroke="#ffffff" cx="552.3156" cy="-336.432" rx="83.947" ry="18"/>
<text text-anchor="middle" x="552.3156" y="-332.232" font-family="Times,serif" font-size="14.00" fill="#ffffff">NetCmdForwarder</text>
</g>
<!-- NetCmdForwarder&#45;&gt;SmurfdNetCmdForwarder -->
<g id="edge18" class="edge">
<title>NetCmdForwarder-&gt;SmurfdNetCmdForwarder</title>
<path fill="none" stroke="#ffffff" d="M544.9856,-318.1192C538.6889,-302.3878 529.5173,-279.4742 522.336,-261.5329"/>
<polygon fill="#ffffff" stroke="#ffffff" points="525.5476,-260.1375 518.5821,-252.1542 519.0488,-262.7388 525.5476,-260.1375"/>
</g>
<!-- SmurfBoard -->
<g id="node18" class="node">
<title>SmurfBoard</title>
<ellipse fill="none" stroke="#ffffff" cx="387.3156" cy="-162" rx="58.5482" ry="18"/>
<text text-anchor="middle" x="387.3156" y="-157.8" font-family="Times,serif" font-size="14.00" fill="#ffffff">SmurfBoard</text>
</g>
<!-- SmurfBoard&#45;&gt;DataBase -->
<g id="edge25" class="edge">
<title>SmurfBoard-&gt;DataBase</title>
<path fill="none" stroke="#ff0000" stroke-dasharray="5,2" d="M387.3156,-143.8314C387.3156,-136.131 387.3156,-126.9743 387.3156,-118.4166"/>
<polygon fill="#ff0000" stroke="#ff0000" points="390.8157,-118.4132 387.3156,-108.4133 383.8157,-118.4133 390.8157,-118.4132"/>
</g>
<!-- SmurfSyncParse -->
<g id="node19" class="node">
<title>SmurfSyncParse</title>
<ellipse fill="none" stroke="#ffffff" cx="577.3156" cy="-162" rx="75.2983" ry="18"/>
<text text-anchor="middle" x="577.3156" y="-157.8" font-family="Times,serif" font-size="14.00" fill="#ffffff">SmurfSyncParse</text>
</g>
<!-- SmurfSyncParse&#45;&gt;DataBase -->
<g id="edge28" class="edge">
<title>SmurfSyncParse-&gt;DataBase</title>
<path fill="none" stroke="#ff0000" stroke-dasharray="5,2" d="M537.0215,-146.7307C505.8263,-134.9093 462.6928,-118.564 430.7351,-106.4537"/>
<polygon fill="#ff0000" stroke="#ff0000" points="431.793,-103.1118 421.2016,-102.841 429.3124,-109.6575 431.793,-103.1118"/>
</g>
<!-- SmurfHeaderParse -->
<g id="node20" class="node">
<title>SmurfHeaderParse</title>
<ellipse fill="none" stroke="#ffffff" cx="112.3156" cy="-162" rx="83.9238" ry="18"/>
<text text-anchor="middle" x="112.3156" y="-157.8" font-family="Times,serif" font-size="14.00" fill="#ffffff">SmurfHeaderParse</text>
</g>
<!-- SmurfHeaderParse&#45;&gt;DataBase -->
<g id="edge29" class="edge">
<title>SmurfHeaderParse-&gt;DataBase</title>
<path fill="none" stroke="#ff0000" stroke-dasharray="5,2" d="M165.6644,-148.0323C215.5356,-134.9751 289.4045,-115.6349 337.9461,-102.9258"/>
<polygon fill="#ff0000" stroke="#ff0000" points="339.1148,-106.2379 347.9022,-100.3191 337.3418,-99.4661 339.1148,-106.2379"/>
</g>
</g>

<g>
  <text x="800" y="20" fill="#ffffff">Inheritance</text>
  <line x1="750" y1="15" x2="790" y2="15" stroke="#ffffff"/>
</g>

<g>
  <text x="800" y="40" fill="#ffffff">Composition</text>
  <line x1="750" y1="35" x2="790" y2="35" stroke="#ffffff" stroke-dasharray="5,2"/>
</g>

<g>
  <text x="800" y="60" fill="#ffffff">Init at Child Construction</text>
  <line x1="750" y1="55" x2="790" y2="55" stroke="#ff0000" stroke-dasharray="5,2"/>
</g>
</svg>
